<?xml version="1.0" encoding="iso-8859-1"?>
<!-- Generator: Adobe Illustrator 19.0.0, SVG Export Plug-In . SVG Version: 6.00 Build 0)  -->
<svg version="1.1" id="Layer_1" xmlns="http://www.w3.org/2000/svg" xmlns:xlink="http://www.w3.org/1999/xlink" x="0px" y="0px"
	 viewBox="0 0 512 512" style="enable-background:new 0 0 512 512;" xml:space="preserve">
<g>
	<path style="fill:#2D527C;" d="M378.668,512H133.33c-35.164,0-63.771-28.607-63.771-63.771V231.573
		c0-35.164,28.607-63.771,63.771-63.771h36.621v-12.899c0-7.919,6.421-14.342,14.342-14.342s14.342,6.422,14.342,14.342v27.24
		c0,7.919-6.421,14.342-14.342,14.342H133.33c-19.348,0-35.088,15.741-35.088,35.088v216.655c0,19.347,15.74,35.088,35.088,35.088
		h245.339c19.348,0,35.088-15.741,35.088-35.088v-109.7c0-7.919,6.421-14.342,14.342-14.342s14.342,6.422,14.342,14.342v109.7
		C442.439,483.393,413.832,512,378.668,512z"/>
	<path style="fill:#2D527C;" d="M428.098,275.36c-7.921,0-14.342-6.422-14.342-14.342v-29.445c0-19.347-15.74-35.088-35.088-35.088
		h-50.963c-7.921,0-14.342-6.422-14.342-14.342v-27.24c0-7.919,6.421-14.342,14.342-14.342s14.342,6.422,14.342,14.342v12.899
		h36.621c35.164,0,63.771,28.607,63.771,63.771v29.445C442.439,268.938,436.019,275.36,428.098,275.36z"/>
</g>
<path style="fill:#CEE8FA;" d="M351.37,103.259H160.628c-24.554,0-44.459-19.905-44.459-44.459l0,0
	c0-24.554,19.905-44.459,44.459-44.459h190.743c24.554,0,44.459,19.905,44.459,44.459l0,0
	C395.829,83.355,375.925,103.259,351.37,103.259z"/>
<path style="fill:#2D527C;" d="M351.37,117.601H160.628c-32.422,0-58.8-26.378-58.8-58.8S128.205,0,160.628,0h190.743
	c32.422,0,58.801,26.378,58.801,58.8S383.792,117.601,351.37,117.601z M160.628,28.683c-16.608,0-30.117,13.511-30.117,30.117
	s13.51,30.117,30.117,30.117h190.743c16.608,0,30.117-13.511,30.117-30.117s-13.51-30.117-30.117-30.117
	C351.371,28.683,160.628,28.683,160.628,28.683z"/>
<path style="fill:#CEE8FA;" d="M339.814,411.063H172.183c-9.418,0-17.054-7.635-17.054-17.054V285.805
	c0-9.418,7.635-17.054,17.054-17.054h167.632c9.418,0,17.054,7.635,17.054,17.054v108.204
	C356.868,403.427,349.234,411.063,339.814,411.063z"/>
<g>
	<path style="fill:#2D527C;" d="M339.814,425.404h-167.63c-17.312,0-31.395-14.083-31.395-31.395V285.805
		c0-17.312,14.083-31.397,31.395-31.397h167.632c17.312,0,31.395,14.083,31.395,31.397v108.204
		C371.209,411.321,357.126,425.404,339.814,425.404z M172.184,283.093c-1.496,0-2.712,1.218-2.712,2.713V394.01
		c0,1.496,1.216,2.712,2.712,2.712h167.632c1.496,0,2.712-1.216,2.712-2.712V285.806c0-1.496-1.216-2.713-2.712-2.713H172.184z"/>
	<path style="fill:#2D527C;" d="M255.999,381.444c-7.921,0-14.342-6.422-14.342-14.342V312.71c0-7.919,6.421-14.342,14.342-14.342
		s14.342,6.422,14.342,14.342v54.392C270.341,375.022,263.92,381.444,255.999,381.444z"/>
	<path style="fill:#2D527C;" d="M283.195,354.248h-54.392c-7.921,0-14.342-6.422-14.342-14.342c0-7.919,6.421-14.342,14.342-14.342
		h54.392c7.921,0,14.342,6.422,14.342,14.342C297.536,347.826,291.116,354.248,283.195,354.248z"/>
</g>
<g>
</g>
<g>
</g>
<g>
</g>
<g>
</g>
<g>
</g>
<g>
</g>
<g>
</g>
<g>
</g>
<g>
</g>
<g>
</g>
<g>
</g>
<g>
</g>
<g>
</g>
<g>
</g>
<g>
</g>
</svg>
