<?xml version="1.0" encoding="iso-8859-1"?>
<!-- Generator: Adobe Illustrator 19.0.0, SVG Export Plug-In . SVG Version: 6.00 Build 0)  -->
<svg version="1.1" id="Layer_1" xmlns="http://www.w3.org/2000/svg" xmlns:xlink="http://www.w3.org/1999/xlink" x="0px" y="0px"
	 viewBox="0 0 512 512" style="enable-background:new 0 0 512 512;" xml:space="preserve">
<path style="fill:#FF7226;" d="M359.44,76.886H70.858c-13.885,0-25.141,11.256-25.141,25.141v376.66
	c0,13.885,11.256,25.141,25.141,25.141H359.44c13.885,0,25.141-11.256,25.141-25.141V102.029
	C384.582,88.142,373.326,76.886,359.44,76.886z"/>
<rect x="78.396" y="109.568" style="fill:#FFFFFF;" width="273.506" height="361.581"/>
<path style="fill:#F56E92;" d="M428.156,430.979v25.872c0,7.864,6.434,14.298,14.298,14.298h9.532
	c7.864,0,14.298-6.434,14.298-14.298v-25.872l-19.064-10.894L428.156,430.979z"/>
<polygon style="fill:#F7EBD4;" points="447.22,97.573 428.157,158.96 447.221,169.853 466.284,158.96 "/>
<rect x="428.163" y="158.96" style="fill:#FFD15D;" width="38.128" height="272.025"/>
<path style="fill:#8FD9C2;" d="M285.269,51.745h-26.544c0-24.065-19.509-43.574-43.576-43.574
	c-24.066,0-43.574,19.509-43.576,43.574h-26.544c-13.885,0-25.141,11.256-25.141,25.141v65.362h190.524V76.886
	C310.41,63.001,299.154,51.745,285.269,51.745z"/>
<rect x="130.778" y="194.636" style="fill:#F99FB6;" width="125.157" height="115.2"/>
<g>
	<path style="fill:#3E0412;" d="M359.44,68.717h-16.348c-4.512,0-8.17,3.658-8.17,8.17c0,4.512,3.658,8.17,8.17,8.17h16.348
		c9.359,0,16.972,7.614,16.972,16.971v376.66c0,9.358-7.614,16.971-16.972,16.971H70.858c-9.359,0-16.972-7.614-16.972-16.971
		v-376.66c0-9.358,7.614-16.971,16.972-16.971h16.348c4.512,0,8.17-3.658,8.17-8.17c0-4.512-3.658-8.17-8.17-8.17H70.858
		c-18.369,0-33.313,14.944-33.313,33.312v376.66c0,18.368,14.944,33.312,33.313,33.312H359.44c18.369,0,33.313-14.944,33.313-33.312
		v-376.66C392.753,83.66,377.809,68.717,359.44,68.717z"/>
	<path style="fill:#3E0412;" d="M474.455,430.979c0-0.001,0-272.019,0-272.019c0-0.376-0.034-0.743-0.084-1.106
		c-0.011-0.081-0.023-0.16-0.037-0.241c-0.064-0.383-0.147-0.76-0.263-1.124L455.023,95.15c-1.061-3.418-4.223-5.747-7.803-5.747
		s-6.741,2.329-7.803,5.747l-19.05,61.342c-0.114,0.363-0.197,0.739-0.261,1.121c-0.013,0.081-0.026,0.16-0.037,0.241
		c-0.049,0.363-0.083,0.729-0.083,1.105V456.85c0,12.389,10.079,22.468,22.468,22.468h9.532c12.389,0,22.468-10.079,22.468-22.468
		C474.455,456.851,474.455,430.98,474.455,430.979z M436.327,167.13h21.787v255.679h-21.787V167.13z M447.221,125.122l7.971,25.669
		h-15.943L447.221,125.122z M451.987,462.979h-9.532c-3.379,0-6.128-2.748-6.128-6.128v-17.702h21.787v17.702
		C458.115,460.23,455.365,462.979,451.987,462.979z"/>
	<path style="fill:#3E0412;" d="M299.517,377.914H130.781c-4.512,0-8.17,3.658-8.17,8.17c0,4.512,3.658,8.17,8.17,8.17h168.737
		c4.512,0,8.17-3.658,8.17-8.17C307.688,381.572,304.029,377.914,299.517,377.914z"/>
	<path style="fill:#3E0412;" d="M215.149,410.595h-84.368c-4.512,0-8.17,3.658-8.17,8.17c0,4.512,3.658,8.17,8.17,8.17h84.368
		c4.512,0,8.17-3.658,8.17-8.17C223.319,414.253,219.661,410.595,215.149,410.595z"/>
	<path style="fill:#3E0412;" d="M78.396,101.397c-4.512,0-8.17,3.658-8.17,8.17v361.582c0,4.512,3.658,8.17,8.17,8.17h273.505
		c4.512,0,8.17-3.658,8.17-8.17V109.567c0-4.512-3.658-8.17-8.17-8.17h-33.32V76.886c0-18.369-14.944-33.313-33.312-33.313H266.25
		C262.322,18.91,240.901,0,215.149,0s-47.173,18.91-51.101,43.574h-19.019c-18.368,0-33.312,14.944-33.312,33.313v24.511H78.396
		V101.397z M343.731,117.737v345.242H86.566V117.737h25.15v24.511c0,4.512,3.658,8.17,8.17,8.17H310.41
		c4.512,0,8.17-3.658,8.17-8.17v-24.511C318.581,117.737,343.731,117.737,343.731,117.737z M128.058,76.887
		c0-9.359,7.614-16.972,16.971-16.972h26.544c4.512,0,8.17-3.658,8.17-8.17c0.001-19.521,15.883-35.404,35.405-35.404
		s35.404,15.883,35.405,35.404c0,4.512,3.658,8.17,8.17,8.17h26.544c9.358,0,16.971,7.614,16.971,16.972v57.191H128.058V76.887z"/>
	<path style="fill:#3E0412;" d="M215.149,38.128c-4.512,0-8.17,3.658-8.17,8.17v10.894c0,4.512,3.658,8.17,8.17,8.17
		s8.17-3.658,8.17-8.17V46.298C223.319,41.786,219.661,38.128,215.149,38.128z"/>
	<path style="fill:#3E0412;" d="M299.517,186.463h-10.894c-4.512,0-8.17,3.658-8.17,8.17c0,4.512,3.658,8.17,8.17,8.17h2.723v98.855
		h-2.723c-4.512,0-8.17,3.658-8.17,8.17s3.658,8.17,8.17,8.17h10.894c4.512,0,8.17-3.658,8.17-8.17V194.633
		C307.687,190.121,304.029,186.463,299.517,186.463z"/>
	<path style="fill:#3E0412;" d="M130.781,361.573h125.162c4.512,0,8.17-3.658,8.17-8.17v-10.894c0-4.512-3.658-8.17-8.17-8.17
		s-8.17,3.658-8.17,8.17v2.723H138.951v-2.723c0-4.512-3.658-8.17-8.17-8.17c-4.512,0-8.17,3.658-8.17,8.17v10.894
		C122.611,357.915,126.269,361.573,130.781,361.573z"/>
	<path style="fill:#3E0412;" d="M130.781,317.999h125.162c4.512,0,8.17-3.658,8.17-8.17V194.633c0-4.512-3.658-8.17-8.17-8.17
		H130.781c-4.512,0-8.17,3.658-8.17,8.17v21.787c0,4.512,3.658,8.17,8.17,8.17c4.512,0,8.17-3.658,8.17-8.17v-13.617h108.822v98.855
		H138.951v-52.557c0-4.512-3.658-8.17-8.17-8.17c-4.512,0-8.17,3.658-8.17,8.17v60.728
		C122.611,314.341,126.269,317.999,130.781,317.999z"/>
</g>
<g>
</g>
<g>
</g>
<g>
</g>
<g>
</g>
<g>
</g>
<g>
</g>
<g>
</g>
<g>
</g>
<g>
</g>
<g>
</g>
<g>
</g>
<g>
</g>
<g>
</g>
<g>
</g>
<g>
</g>
</svg>
