<?xml version="1.0" encoding="iso-8859-1"?>
<!-- Generator: Adobe Illustrator 19.0.0, SVG Export Plug-In . SVG Version: 6.00 Build 0)  -->
<svg version="1.1" id="Layer_1" xmlns="http://www.w3.org/2000/svg" xmlns:xlink="http://www.w3.org/1999/xlink" x="0px" y="0px"
	 viewBox="0 0 512 512" style="enable-background:new 0 0 512 512;" xml:space="preserve">
<g>
	<path style="fill:#65D3AF;" d="M69.68,282.97c-17.483,4.684-32.104,15.908-41.165,31.598c-9.066,15.69-11.479,33.973-6.79,51.47
		c4.684,17.478,15.903,32.09,31.598,41.165c15.699,9.066,33.978,11.479,51.47,6.804l112.332-30.093l-35.113-131.046L69.68,282.97z"
		/>
	<circle style="fill:#65D3AF;" cx="270.529" cy="105.337" r="9.69"/>
	<circle style="fill:#65D3AF;" cx="309.29" cy="182.859" r="19.381"/>
	<circle style="fill:#65D3AF;" cx="207.542" cy="158.633" r="14.535"/>
</g>
<path style="fill:#EAEAEA;" d="M442.321,282.97l-112.332-30.102l-35.113,131.046l112.333,30.093
	c17.493,4.684,35.776,2.262,51.47-6.804c15.695-9.075,26.913-23.686,31.598-41.165c4.689-17.497,2.276-35.78-6.79-51.47
	C474.424,298.878,459.804,287.654,442.321,282.97z"/>
<g>
	<path style="fill:#314E55;" d="M500.268,304.868c-11.654-20.166-30.452-34.597-52.932-40.616l-131.051-35.118l-45.144,168.482
		l131.051,35.108c7.5,2.016,15.113,3.009,22.678,3.009c15.117,0,30.05-3.974,43.507-11.753
		c20.171-11.659,34.597-30.452,40.616-52.928C515.021,348.559,511.922,325.053,500.268,304.868z M490.275,366.038
		c-4.684,17.478-15.903,32.09-31.598,41.165c-15.695,9.066-33.978,11.488-51.47,6.804l-112.332-30.093l35.113-131.046L442.32,282.97
		c17.483,4.684,32.104,15.908,41.165,31.598C492.551,330.258,494.964,348.54,490.275,366.038z"/>
	<path style="fill:#314E55;" d="M64.664,264.252c-22.48,6.018-41.278,20.45-52.932,40.616
		c-11.654,20.185-14.753,43.692-8.725,66.185c6.019,22.475,20.445,41.269,40.616,52.928c13.457,7.779,28.39,11.753,43.507,11.753
		c7.566,0,15.179-1.003,22.678-3.009l131.051-35.108l-45.144-168.482L64.664,264.252z M104.793,414.007
		c-17.493,4.675-35.771,2.262-51.47-6.804c-15.695-9.075-26.913-23.686-31.598-41.165c-4.689-17.498-2.276-35.78,6.79-51.47
		c9.061-15.69,23.682-26.913,41.165-31.598l112.332-30.102l35.113,131.046L104.793,414.007z"/>
	<path style="fill:#314E55;" d="M309.297,221.62c21.373,0,38.761-17.388,38.761-38.761s-17.388-38.761-38.761-38.761
		s-38.761,17.388-38.761,38.761S287.924,221.62,309.297,221.62z M309.297,163.478c10.689,0,19.381,8.692,19.381,19.381
		s-8.692,19.381-19.381,19.381c-10.689,0-19.381-8.692-19.381-19.381S298.608,163.478,309.297,163.478z"/>
	<path style="fill:#314E55;" d="M173.633,158.633c0,18.699,15.217,33.916,33.916,33.916s33.916-15.217,33.916-33.916
		s-15.217-33.916-33.916-33.916S173.633,139.934,173.633,158.633z M207.549,144.098c8.015,0,14.535,6.52,14.535,14.535
		s-6.52,14.535-14.535,14.535c-8.015,0-14.535-6.52-14.535-14.535S199.533,144.098,207.549,144.098z"/>
	<path style="fill:#314E55;" d="M168.787,124.717c18.699,0,33.916-15.217,33.916-33.916c0-5.351-4.339-9.69-9.69-9.69
		s-9.69,4.339-9.69,9.69c0,8.015-6.52,14.535-14.535,14.535c-5.351,0-9.69,4.339-9.69,9.69
		C159.097,120.378,163.436,124.717,168.787,124.717z"/>
	<path style="fill:#314E55;" d="M238.966,225.316c-5.427-0.549-10.088,3.307-10.651,8.626c-0.558,5.318,3.303,10.088,8.626,10.646
		c3.861,0.407,7.329,2.3,9.776,5.318c2.441,3.009,3.563,6.804,3.156,10.665c-0.558,5.318,3.303,10.088,8.626,10.646
		c0.345,0.038,0.686,0.057,1.022,0.057c4.897,0,9.104-3.7,9.629-8.678C271.108,244.001,257.566,227.274,238.966,225.316z"/>
	<path style="fill:#314E55;" d="M344.273,127.94c1.235,0.525,2.517,0.776,3.78,0.776c3.771-0.005,7.358-2.219,8.924-5.91
		c3.132-7.381,11.682-10.826,19.063-7.698c4.926,2.087,10.613-0.208,12.704-5.134c2.091-4.926-0.208-10.613-5.134-12.704
		c-17.199-7.32-37.171,0.748-44.472,17.966C337.047,120.161,339.347,125.848,344.273,127.94z"/>
	<path style="fill:#314E55;" d="M270.535,134.408c16.031,0,29.071-13.04,29.071-29.071s-13.04-29.071-29.071-29.071
		s-29.071,13.04-29.071,29.071S254.505,134.408,270.535,134.408z M270.535,95.646c5.342,0,9.69,4.348,9.69,9.69
		c0,5.342-4.348,9.69-9.69,9.69s-9.69-4.348-9.69-9.69C260.845,99.995,265.193,95.646,270.535,95.646z"/>
</g>
<g>
</g>
<g>
</g>
<g>
</g>
<g>
</g>
<g>
</g>
<g>
</g>
<g>
</g>
<g>
</g>
<g>
</g>
<g>
</g>
<g>
</g>
<g>
</g>
<g>
</g>
<g>
</g>
<g>
</g>
</svg>
